<?xml version="1.0" standalone="no"?>
<!DOCTYPE svg PUBLIC "-//W3C//DTD SVG 20010904//EN"
 "http://www.w3.org/TR/2001/REC-SVG-20010904/DTD/svg10.dtd">
<svg version="1.0" xmlns="http://www.w3.org/2000/svg"
 width="512.000000pt" height="512.000000pt" viewBox="0 0 512.000000 512.000000"
 preserveAspectRatio="xMidYMid meet">

<g transform="translate(0.000000,512.000000) scale(0.100000,-0.100000)"
fill="#000000" stroke="none">
<path d="M2410 5110 c-242 -30 -490 -103 -706 -209 -810 -396 -1280 -1246
-1149 -2076 17 -111 27 -145 59 -199 24 -41 85 -104 135 -139 14 -9 23 -18 20
-19 -2 -2 -30 -16 -62 -32 -72 -36 -133 -94 -160 -154 -20 -43 -22 -62 -20
-208 6 -537 222 -1039 618 -1438 507 -510 1233 -734 1920 -595 391 80 760 281
1045 568 127 128 197 216 291 366 77 123 173 323 188 392 24 115 -23 227 -149
354 -257 258 -837 531 -1440 679 -102 25 -436 88 -483 91 -6 0 74 20 178 43
512 116 916 252 1266 427 412 205 630 427 629 638 0 59 -66 254 -130 390 -100
208 -199 350 -364 520 -306 313 -686 510 -1136 586 -112 19 -440 28 -550 15z
m1015 -874 c185 -86 247 -377 112 -523 -50 -55 -106 -82 -168 -83 -253 -1
-398 373 -217 559 73 75 176 93 273 47z m-2499 -2562 c401 -265 1204 -538
1860 -634 l81 -12 21 -73 c44 -149 163 -274 304 -316 88 -27 204 -23 288 11
119 47 228 150 281 265 13 28 24 51 24 52 0 1 47 7 105 13 58 6 145 20 194 31
49 10 92 17 94 14 3 -3 -21 -39 -53 -81 -372 -485 -951 -757 -1555 -731 -605
26 -1177 354 -1521 870 -142 215 -226 415 -285 686 -5 23 -4 22 38 -9 24 -18
79 -56 124 -86z"/>
</g>
</svg>
